<?xml version="1.0" standalone="yes"?>
<!-- SVG graphic -->
<svg xmlns='http://www.w3.org/2000/svg' xmlns:xlink='http://www.w3.org/1999/xlink'
 version="1.1">
<rect x="0" y="0" width="6" height="200" stroke="black" stroke-width="1" fill="blue" tooltip="enable"><title>(0,51874)</title></rect><rect x="6" y="89.0273" width="6" height="110.973" stroke="black" stroke-width="1" fill="blue" tooltip="enable"><title>(0.0398063,28783)</title></rect><rect x="12" y="104.01" width="6" height="95.9903" stroke="black" stroke-width="1" fill="blue" tooltip="enable"><title>(0.0796125,24897)</title></rect><rect x="18" y="114.073" width="6" height="85.9274" stroke="black" stroke-width="1" fill="blue" tooltip="enable"><title>(0.119419,22287)</title></rect><rect x="24" y="122.547" width="6" height="77.4531" stroke="black" stroke-width="1" fill="blue" tooltip="enable"><title>(0.159225,20089)</title></rect><rect x="30" y="130.254" width="6" height="69.7459" stroke="black" stroke-width="1" fill="blue" tooltip="enable"><title>(0.199031,18090)</title></rect><rect x="36" y="137.533" width="6" height="62.4667" stroke="black" stroke-width="1" fill="blue" tooltip="enable"><title>(0.238838,16202)</title></rect><rect x="42" y="143.093" width="6" height="56.9071" stroke="black" stroke-width="1" fill="blue" tooltip="enable"><title>(0.278644,14760)</title></rect><rect x="48" y="150.418" width="6" height="49.5817" stroke="black" stroke-width="1" fill="blue" tooltip="enable"><title>(0.31845,12860)</title></rect><rect x="54" y="156.124" width="6" height="43.8755" stroke="black" stroke-width="1" fill="blue" tooltip="enable"><title>(0.358256,11380)</title></rect><rect x="60" y="161.765" width="6" height="38.235" stroke="black" stroke-width="1" fill="blue" tooltip="enable"><title>(0.398063,9917)</title></rect><rect x="66" y="166.557" width="6" height="33.4426" stroke="black" stroke-width="1" fill="blue" tooltip="enable"><title>(0.437869,8674)</title></rect><rect x="72" y="170.621" width="6" height="29.3789" stroke="black" stroke-width="1" fill="blue" tooltip="enable"><title>(0.477675,7620)</title></rect><rect x="78" y="173.644" width="6" height="26.3562" stroke="black" stroke-width="1" fill="blue" tooltip="enable"><title>(0.517481,6836)</title></rect><rect x="84" y="177.079" width="6" height="22.9209" stroke="black" stroke-width="1" fill="blue" tooltip="enable"><title>(0.557288,5945)</title></rect><rect x="90" y="179.813" width="6" height="20.1874" stroke="black" stroke-width="1" fill="blue" tooltip="enable"><title>(0.597094,5236)</title></rect><rect x="96" y="181.355" width="6" height="18.6452" stroke="black" stroke-width="1" fill="blue" tooltip="enable"><title>(0.6369,4836)</title></rect><rect x="102" y="184.424" width="6" height="15.5762" stroke="black" stroke-width="1" fill="blue" tooltip="enable"><title>(0.676706,4040)</title></rect><rect x="108" y="185.634" width="6" height="14.3656" stroke="black" stroke-width="1" fill="blue" tooltip="enable"><title>(0.716513,3726)</title></rect><rect x="114" y="187.616" width="6" height="12.3839" stroke="black" stroke-width="1" fill="blue" tooltip="enable"><title>(0.756319,3212)</title></rect><rect x="120" y="188.642" width="6" height="11.3583" stroke="black" stroke-width="1" fill="blue" tooltip="enable"><title>(0.796125,2946)</title></rect><rect x="126" y="190.631" width="6" height="9.36886" stroke="black" stroke-width="1" fill="blue" tooltip="enable"><title>(0.835931,2430)</title></rect><rect x="132" y="191.04" width="6" height="8.96017" stroke="black" stroke-width="1" fill="blue" tooltip="enable"><title>(0.875738,2324)</title></rect><rect x="138" y="192.493" width="6" height="7.50665" stroke="black" stroke-width="1" fill="blue" tooltip="enable"><title>(0.915544,1947)</title></rect><rect x="144" y="192.96" width="6" height="7.04014" stroke="black" stroke-width="1" fill="blue" tooltip="enable"><title>(0.95535,1826)</title></rect><rect x="150" y="193.893" width="6" height="6.10711" stroke="black" stroke-width="1" fill="blue" tooltip="enable"><title>(0.995156,1584)</title></rect><rect x="156" y="194.402" width="6" height="5.59818" stroke="black" stroke-width="1" fill="blue" tooltip="enable"><title>(1.03496,1452)</title></rect><rect x="162" y="194.849" width="6" height="5.15094" stroke="black" stroke-width="1" fill="blue" tooltip="enable"><title>(1.07477,1336)</title></rect><rect x="168" y="195.597" width="6" height="4.40298" stroke="black" stroke-width="1" fill="blue" tooltip="enable"><title>(1.11458,1142)</title></rect><rect x="174" y="195.948" width="6" height="4.05213" stroke="black" stroke-width="1" fill="blue" tooltip="enable"><title>(1.15438,1051)</title></rect><rect x="180" y="196.407" width="6" height="3.59332" stroke="black" stroke-width="1" fill="blue" tooltip="enable"><title>(1.19419,932)</title></rect><rect x="186" y="196.885" width="6" height="3.11524" stroke="black" stroke-width="1" fill="blue" tooltip="enable"><title>(1.23399,808)</title></rect><rect x="192" y="196.8" width="6" height="3.20006" stroke="black" stroke-width="1" fill="blue" tooltip="enable"><title>(1.2738,830)</title></rect><rect x="198" y="197.155" width="6" height="2.84536" stroke="black" stroke-width="1" fill="blue" tooltip="enable"><title>(1.31361,738)</title></rect><rect x="204" y="197.656" width="6" height="2.34414" stroke="black" stroke-width="1" fill="blue" tooltip="enable"><title>(1.35341,608)</title></rect><rect x="210" y="197.741" width="6" height="2.25932" stroke="black" stroke-width="1" fill="blue" tooltip="enable"><title>(1.39322,586)</title></rect><rect x="216" y="197.86" width="6" height="2.1398" stroke="black" stroke-width="1" fill="blue" tooltip="enable"><title>(1.43303,555)</title></rect><rect x="222" y="198.111" width="6" height="1.88919" stroke="black" stroke-width="1" fill="blue" tooltip="enable"><title>(1.47283,490)</title></rect><rect x="228" y="198.203" width="6" height="1.79666" stroke="black" stroke-width="1" fill="blue" tooltip="enable"><title>(1.51264,466)</title></rect><rect x="234" y="198.385" width="6" height="1.61545" stroke="black" stroke-width="1" fill="blue" tooltip="enable"><title>(1.55244,419)</title></rect><rect x="240" y="198.566" width="6" height="1.43424" stroke="black" stroke-width="1" fill="blue" tooltip="enable"><title>(1.59225,372)</title></rect><rect x="246" y="198.67" width="6" height="1.33015" stroke="black" stroke-width="1" fill="blue" tooltip="enable"><title>(1.63206,345)</title></rect><rect x="252" y="198.759" width="6" height="1.24147" stroke="black" stroke-width="1" fill="blue" tooltip="enable"><title>(1.67186,322)</title></rect><rect x="258" y="198.863" width="6" height="1.13737" stroke="black" stroke-width="1" fill="blue" tooltip="enable"><title>(1.71167,295)</title></rect><rect x="264" y="198.974" width="6" height="1.02556" stroke="black" stroke-width="1" fill="blue" tooltip="enable"><title>(1.75148,266)</title></rect><rect x="270" y="199.14" width="6" height="0.859776" stroke="black" stroke-width="1" fill="blue" tooltip="enable"><title>(1.79128,223)</title></rect><rect x="276" y="199.082" width="6" height="0.917608" stroke="black" stroke-width="1" fill="blue" tooltip="enable"><title>(1.83109,238)</title></rect><rect x="282" y="199.279" width="6" height="0.720978" stroke="black" stroke-width="1" fill="blue" tooltip="enable"><title>(1.87089,187)</title></rect><rect x="288" y="199.252" width="6" height="0.747966" stroke="black" stroke-width="1" fill="blue" tooltip="enable"><title>(1.9107,194)</title></rect><rect x="294" y="199.379" width="6" height="0.620735" stroke="black" stroke-width="1" fill="blue" tooltip="enable"><title>(1.95051,161)</title></rect><rect x="300" y="199.352" width="6" height="0.647723" stroke="black" stroke-width="1" fill="blue" tooltip="enable"><title>(1.99031,168)</title></rect><rect x="306" y="199.337" width="6" height="0.663145" stroke="black" stroke-width="1" fill="blue" tooltip="enable"><title>(2.03012,172)</title></rect><rect x="312" y="199.41" width="6" height="0.589891" stroke="black" stroke-width="1" fill="blue" tooltip="enable"><title>(2.06993,153)</title></rect><rect x="318" y="199.541" width="6" height="0.458804" stroke="black" stroke-width="1" fill="blue" tooltip="enable"><title>(2.10973,119)</title></rect><rect x="324" y="199.514" width="6" height="0.485792" stroke="black" stroke-width="1" fill="blue" tooltip="enable"><title>(2.14954,126)</title></rect><rect x="330" y="199.503" width="6" height="0.497359" stroke="black" stroke-width="1" fill="blue" tooltip="enable"><title>(2.18934,129)</title></rect><rect x="336" y="199.595" width="6" height="0.404827" stroke="black" stroke-width="1" fill="blue" tooltip="enable"><title>(2.22915,105)</title></rect><rect x="342" y="199.595" width="6" height="0.404827" stroke="black" stroke-width="1" fill="blue" tooltip="enable"><title>(2.26896,105)</title></rect><rect x="348" y="199.657" width="6" height="0.343139" stroke="black" stroke-width="1" fill="blue" tooltip="enable"><title>(2.30876,89)</title></rect><rect x="354" y="199.607" width="6" height="0.393261" stroke="black" stroke-width="1" fill="blue" tooltip="enable"><title>(2.34857,102)</title></rect><rect x="360" y="199.695" width="6" height="0.304584" stroke="black" stroke-width="1" fill="blue" tooltip="enable"><title>(2.38838,79)</title></rect><rect x="366" y="199.692" width="6" height="0.30844" stroke="black" stroke-width="1" fill="blue" tooltip="enable"><title>(2.42818,80)</title></rect><rect x="372" y="199.611" width="6" height="0.389405" stroke="black" stroke-width="1" fill="blue" tooltip="enable"><title>(2.46799,101)</title></rect><rect x="378" y="199.715" width="6" height="0.285307" stroke="black" stroke-width="1" fill="blue" tooltip="enable"><title>(2.50779,74)</title></rect><rect x="384" y="199.726" width="6" height="0.27374" stroke="black" stroke-width="1" fill="blue" tooltip="enable"><title>(2.5476,71)</title></rect><rect x="390" y="199.746" width="6" height="0.254463" stroke="black" stroke-width="1" fill="blue" tooltip="enable"><title>(2.58741,66)</title></rect><rect x="396" y="199.757" width="6" height="0.242896" stroke="black" stroke-width="1" fill="blue" tooltip="enable"><title>(2.62721,63)</title></rect><rect x="402" y="199.765" width="6" height="0.235185" stroke="black" stroke-width="1" fill="blue" tooltip="enable"><title>(2.66702,61)</title></rect><rect x="408" y="199.792" width="6" height="0.208197" stroke="black" stroke-width="1" fill="blue" tooltip="enable"><title>(2.70683,54)</title></rect><rect x="414" y="199.815" width="6" height="0.185064" stroke="black" stroke-width="1" fill="blue" tooltip="enable"><title>(2.74663,48)</title></rect><rect x="420" y="199.861" width="6" height="0.138798" stroke="black" stroke-width="1" fill="blue" tooltip="enable"><title>(2.78644,36)</title></rect><rect x="426" y="199.819" width="6" height="0.181208" stroke="black" stroke-width="1" fill="blue" tooltip="enable"><title>(2.82624,47)</title></rect><rect x="432" y="199.877" width="6" height="0.123376" stroke="black" stroke-width="1" fill="blue" tooltip="enable"><title>(2.86605,32)</title></rect><rect x="438" y="199.83" width="6" height="0.169642" stroke="black" stroke-width="1" fill="blue" tooltip="enable"><title>(2.90586,44)</title></rect><rect x="444" y="199.865" width="6" height="0.134942" stroke="black" stroke-width="1" fill="blue" tooltip="enable"><title>(2.94566,35)</title></rect><rect x="450" y="199.865" width="6" height="0.134942" stroke="black" stroke-width="1" fill="blue" tooltip="enable"><title>(2.98547,35)</title></rect><rect x="456" y="199.911" width="6" height="0.0886764" stroke="black" stroke-width="1" fill="blue" tooltip="enable"><title>(3.02528,23)</title></rect><rect x="462" y="199.896" width="6" height="0.104098" stroke="black" stroke-width="1" fill="blue" tooltip="enable"><title>(3.06508,27)</title></rect><rect x="468" y="199.896" width="6" height="0.104098" stroke="black" stroke-width="1" fill="blue" tooltip="enable"><title>(3.10489,27)</title></rect><rect x="474" y="199.896" width="6" height="0.104098" stroke="black" stroke-width="1" fill="blue" tooltip="enable"><title>(3.14469,27)</title></rect><rect x="480" y="199.919" width="6" height="0.0809654" stroke="black" stroke-width="1" fill="blue" tooltip="enable"><title>(3.1845,21)</title></rect><rect x="486" y="199.938" width="6" height="0.0616879" stroke="black" stroke-width="1" fill="blue" tooltip="enable"><title>(3.22431,16)</title></rect><rect x="492" y="199.938" width="6" height="0.0616879" stroke="black" stroke-width="1" fill="blue" tooltip="enable"><title>(3.26411,16)</title></rect><rect x="498" y="199.896" width="6" height="0.104098" stroke="black" stroke-width="1" fill="blue" tooltip="enable"><title>(3.30392,27)</title></rect><rect x="504" y="199.946" width="6" height="0.0539769" stroke="black" stroke-width="1" fill="blue" tooltip="enable"><title>(3.34373,14)</title></rect><rect x="510" y="199.907" width="6" height="0.0925319" stroke="black" stroke-width="1" fill="blue" tooltip="enable"><title>(3.38353,24)</title></rect><rect x="516" y="199.958" width="6" height="0.0424105" stroke="black" stroke-width="1" fill="blue" tooltip="enable"><title>(3.42334,11)</title></rect><rect x="522" y="199.946" width="6" height="0.0539769" stroke="black" stroke-width="1" fill="blue" tooltip="enable"><title>(3.46314,14)</title></rect><rect x="528" y="199.95" width="6" height="0.0501214" stroke="black" stroke-width="1" fill="blue" tooltip="enable"><title>(3.50295,13)</title></rect><rect x="534" y="199.954" width="6" height="0.046266" stroke="black" stroke-width="1" fill="blue" tooltip="enable"><title>(3.54276,12)</title></rect><rect x="540" y="199.958" width="6" height="0.0424105" stroke="black" stroke-width="1" fill="blue" tooltip="enable"><title>(3.58256,11)</title></rect><rect x="546" y="199.961" width="6" height="0.038555" stroke="black" stroke-width="1" fill="blue" tooltip="enable"><title>(3.62237,10)</title></rect><rect x="552" y="199.95" width="6" height="0.0501214" stroke="black" stroke-width="1" fill="blue" tooltip="enable"><title>(3.66218,13)</title></rect><rect x="558" y="199.95" width="6" height="0.0501214" stroke="black" stroke-width="1" fill="blue" tooltip="enable"><title>(3.70198,13)</title></rect><rect x="564" y="199.954" width="6" height="0.046266" stroke="black" stroke-width="1" fill="blue" tooltip="enable"><title>(3.74179,12)</title></rect><rect x="570" y="199.977" width="6" height="0.023133" stroke="black" stroke-width="1" fill="blue" tooltip="enable"><title>(3.78159,6)</title></rect><rect x="576" y="199.969" width="6" height="0.030844" stroke="black" stroke-width="1" fill="blue" tooltip="enable"><title>(3.8214,8)</title></rect><rect x="582" y="199.973" width="6" height="0.0269885" stroke="black" stroke-width="1" fill="blue" tooltip="enable"><title>(3.86121,7)</title></rect><rect x="588" y="199.985" width="6" height="0.015422" stroke="black" stroke-width="1" fill="blue" tooltip="enable"><title>(3.90101,4)</title></rect><rect x="594" y="199.981" width="6" height="0.0192775" stroke="black" stroke-width="1" fill="blue" tooltip="enable"><title>(3.94082,5)</title></rect><text x="30" y="240" font-size="20" fill="black">0</text>
<text x="600" y="240" font-size="20" fill="black">3.98063</text>
<polyline points="0,220,600,220" stroke="black" stroke-width="1" fill="none"/>
<text x="720" y="20" font-size="20" fill="black">51874</text>
<text x="720" y="200" font-size="20" fill="black">0</text>
<polyline points="660,0,660,200" stroke="black" stroke-width="1" fill="none"/>
</svg>