<?xml version="1.0" standalone="yes"?>
<!-- SVG graphic -->
<svg xmlns='http://www.w3.org/2000/svg' xmlns:xlink='http://www.w3.org/1999/xlink'
 version="1.1">
<rect x="0" y="0" width="6" height="200" stroke="black" stroke-width="1" fill="blue" tooltip="enable"><title>(0,51528)</title></rect><rect x="6" y="88.5926" width="6" height="111.407" stroke="black" stroke-width="1" fill="blue" tooltip="enable"><title>(0.0393646,28703)</title></rect><rect x="12" y="101.882" width="6" height="98.1175" stroke="black" stroke-width="1" fill="blue" tooltip="enable"><title>(0.0787293,25279)</title></rect><rect x="18" y="113.95" width="6" height="86.0503" stroke="black" stroke-width="1" fill="blue" tooltip="enable"><title>(0.118094,22170)</title></rect><rect x="24" y="123.75" width="6" height="76.2498" stroke="black" stroke-width="1" fill="blue" tooltip="enable"><title>(0.157459,19645)</title></rect><rect x="30" y="132.627" width="6" height="67.3731" stroke="black" stroke-width="1" fill="blue" tooltip="enable"><title>(0.196823,17358)</title></rect><rect x="36" y="139.936" width="6" height="60.0644" stroke="black" stroke-width="1" fill="blue" tooltip="enable"><title>(0.236188,15475)</title></rect><rect x="42" y="146.282" width="6" height="53.7184" stroke="black" stroke-width="1" fill="blue" tooltip="enable"><title>(0.275553,13840)</title></rect><rect x="48" y="152.674" width="6" height="47.3257" stroke="black" stroke-width="1" fill="blue" tooltip="enable"><title>(0.314917,12193)</title></rect><rect x="54" y="157.961" width="6" height="42.0393" stroke="black" stroke-width="1" fill="blue" tooltip="enable"><title>(0.354282,10831)</title></rect><rect x="60" y="164.016" width="6" height="35.9843" stroke="black" stroke-width="1" fill="blue" tooltip="enable"><title>(0.393646,9271)</title></rect><rect x="66" y="168.417" width="6" height="31.5828" stroke="black" stroke-width="1" fill="blue" tooltip="enable"><title>(0.433011,8137)</title></rect><rect x="72" y="171.802" width="6" height="28.1983" stroke="black" stroke-width="1" fill="blue" tooltip="enable"><title>(0.472376,7265)</title></rect><rect x="78" y="174.876" width="6" height="25.1242" stroke="black" stroke-width="1" fill="blue" tooltip="enable"><title>(0.51174,6473)</title></rect><rect x="84" y="178.513" width="6" height="21.4873" stroke="black" stroke-width="1" fill="blue" tooltip="enable"><title>(0.551105,5536)</title></rect><rect x="90" y="180.481" width="6" height="19.5195" stroke="black" stroke-width="1" fill="blue" tooltip="enable"><title>(0.59047,5029)</title></rect><rect x="96" y="182.887" width="6" height="17.113" stroke="black" stroke-width="1" fill="blue" tooltip="enable"><title>(0.629834,4409)</title></rect><rect x="102" y="184.808" width="6" height="15.1917" stroke="black" stroke-width="1" fill="blue" tooltip="enable"><title>(0.669199,3914)</title></rect><rect x="108" y="186.578" width="6" height="13.4218" stroke="black" stroke-width="1" fill="blue" tooltip="enable"><title>(0.708564,3458)</title></rect><rect x="114" y="187.906" width="6" height="12.0944" stroke="black" stroke-width="1" fill="blue" tooltip="enable"><title>(0.747928,3116)</title></rect><rect x="120" y="189.586" width="6" height="10.4138" stroke="black" stroke-width="1" fill="blue" tooltip="enable"><title>(0.787293,2683)</title></rect><rect x="126" y="190.821" width="6" height="9.17947" stroke="black" stroke-width="1" fill="blue" tooltip="enable"><title>(0.826657,2365)</title></rect><rect x="132" y="191.702" width="6" height="8.2984" stroke="black" stroke-width="1" fill="blue" tooltip="enable"><title>(0.866022,2138)</title></rect><rect x="138" y="192.513" width="6" height="7.48719" stroke="black" stroke-width="1" fill="blue" tooltip="enable"><title>(0.905387,1929)</title></rect><rect x="144" y="193.27" width="6" height="6.73032" stroke="black" stroke-width="1" fill="blue" tooltip="enable"><title>(0.944751,1734)</title></rect><rect x="150" y="193.976" width="6" height="6.02391" stroke="black" stroke-width="1" fill="blue" tooltip="enable"><title>(0.984116,1552)</title></rect><rect x="156" y="194.248" width="6" height="5.75221" stroke="black" stroke-width="1" fill="blue" tooltip="enable"><title>(1.02348,1482)</title></rect><rect x="162" y="194.997" width="6" height="5.00311" stroke="black" stroke-width="1" fill="blue" tooltip="enable"><title>(1.06285,1289)</title></rect><rect x="168" y="195.401" width="6" height="4.59944" stroke="black" stroke-width="1" fill="blue" tooltip="enable"><title>(1.10221,1185)</title></rect><rect x="174" y="195.971" width="6" height="4.02888" stroke="black" stroke-width="1" fill="blue" tooltip="enable"><title>(1.14157,1038)</title></rect><rect x="180" y="196.336" width="6" height="3.66403" stroke="black" stroke-width="1" fill="blue" tooltip="enable"><title>(1.18094,944)</title></rect><rect x="186" y="196.604" width="6" height="3.39621" stroke="black" stroke-width="1" fill="blue" tooltip="enable"><title>(1.2203,875)</title></rect><rect x="192" y="196.98" width="6" height="3.01972" stroke="black" stroke-width="1" fill="blue" tooltip="enable"><title>(1.25967,778)</title></rect><rect x="198" y="197.178" width="6" height="2.82177" stroke="black" stroke-width="1" fill="blue" tooltip="enable"><title>(1.29903,727)</title></rect><rect x="204" y="197.446" width="6" height="2.55395" stroke="black" stroke-width="1" fill="blue" tooltip="enable"><title>(1.3384,658)</title></rect><rect x="210" y="197.617" width="6" height="2.38317" stroke="black" stroke-width="1" fill="blue" tooltip="enable"><title>(1.37776,614)</title></rect><rect x="216" y="197.931" width="6" height="2.06878" stroke="black" stroke-width="1" fill="blue" tooltip="enable"><title>(1.41713,533)</title></rect><rect x="222" y="198.044" width="6" height="1.95622" stroke="black" stroke-width="1" fill="blue" tooltip="enable"><title>(1.45649,504)</title></rect><rect x="228" y="198.086" width="6" height="1.91352" stroke="black" stroke-width="1" fill="blue" tooltip="enable"><title>(1.49586,493)</title></rect><rect x="234" y="198.331" width="6" height="1.669" stroke="black" stroke-width="1" fill="blue" tooltip="enable"><title>(1.53522,430)</title></rect><rect x="240" y="198.42" width="6" height="1.57972" stroke="black" stroke-width="1" fill="blue" tooltip="enable"><title>(1.57459,407)</title></rect><rect x="246" y="198.618" width="6" height="1.38177" stroke="black" stroke-width="1" fill="blue" tooltip="enable"><title>(1.61395,356)</title></rect><rect x="252" y="198.766" width="6" height="1.23428" stroke="black" stroke-width="1" fill="blue" tooltip="enable"><title>(1.65331,318)</title></rect><rect x="258" y="198.824" width="6" height="1.17606" stroke="black" stroke-width="1" fill="blue" tooltip="enable"><title>(1.69268,303)</title></rect><rect x="264" y="198.971" width="6" height="1.02857" stroke="black" stroke-width="1" fill="blue" tooltip="enable"><title>(1.73204,265)</title></rect><rect x="270" y="198.909" width="6" height="1.09067" stroke="black" stroke-width="1" fill="blue" tooltip="enable"><title>(1.77141,281)</title></rect><rect x="276" y="199.034" width="6" height="0.966465" stroke="black" stroke-width="1" fill="blue" tooltip="enable"><title>(1.81077,249)</title></rect><rect x="282" y="199.061" width="6" height="0.939295" stroke="black" stroke-width="1" fill="blue" tooltip="enable"><title>(1.85014,242)</title></rect><rect x="288" y="199.165" width="6" height="0.834498" stroke="black" stroke-width="1" fill="blue" tooltip="enable"><title>(1.8895,215)</title></rect><rect x="294" y="199.235" width="6" height="0.764633" stroke="black" stroke-width="1" fill="blue" tooltip="enable"><title>(1.92887,197)</title></rect><rect x="300" y="199.395" width="6" height="0.605496" stroke="black" stroke-width="1" fill="blue" tooltip="enable"><title>(1.96823,156)</title></rect><rect x="306" y="199.445" width="6" height="0.555038" stroke="black" stroke-width="1" fill="blue" tooltip="enable"><title>(2.0076,143)</title></rect><rect x="312" y="199.433" width="6" height="0.566682" stroke="black" stroke-width="1" fill="blue" tooltip="enable"><title>(2.04696,146)</title></rect><rect x="318" y="199.464" width="6" height="0.535631" stroke="black" stroke-width="1" fill="blue" tooltip="enable"><title>(2.08633,138)</title></rect><rect x="324" y="199.379" width="6" height="0.621022" stroke="black" stroke-width="1" fill="blue" tooltip="enable"><title>(2.12569,160)</title></rect><rect x="330" y="199.55" width="6" height="0.450241" stroke="black" stroke-width="1" fill="blue" tooltip="enable"><title>(2.16506,116)</title></rect><rect x="336" y="199.515" width="6" height="0.485173" stroke="black" stroke-width="1" fill="blue" tooltip="enable"><title>(2.20442,125)</title></rect><rect x="342" y="199.67" width="6" height="0.329918" stroke="black" stroke-width="1" fill="blue" tooltip="enable"><title>(2.24378,85)</title></rect><rect x="348" y="199.554" width="6" height="0.446359" stroke="black" stroke-width="1" fill="blue" tooltip="enable"><title>(2.28315,115)</title></rect><rect x="354" y="199.662" width="6" height="0.33768" stroke="black" stroke-width="1" fill="blue" tooltip="enable"><title>(2.32251,87)</title></rect><rect x="360" y="199.616" width="6" height="0.384257" stroke="black" stroke-width="1" fill="blue" tooltip="enable"><title>(2.36188,99)</title></rect><rect x="366" y="199.689" width="6" height="0.310511" stroke="black" stroke-width="1" fill="blue" tooltip="enable"><title>(2.40124,80)</title></rect><rect x="372" y="199.666" width="6" height="0.333799" stroke="black" stroke-width="1" fill="blue" tooltip="enable"><title>(2.44061,86)</title></rect><rect x="378" y="199.693" width="6" height="0.306629" stroke="black" stroke-width="1" fill="blue" tooltip="enable"><title>(2.47997,79)</title></rect><rect x="384" y="199.717" width="6" height="0.283341" stroke="black" stroke-width="1" fill="blue" tooltip="enable"><title>(2.51934,73)</title></rect><rect x="390" y="199.767" width="6" height="0.232883" stroke="black" stroke-width="1" fill="blue" tooltip="enable"><title>(2.5587,60)</title></rect><rect x="396" y="199.732" width="6" height="0.267816" stroke="black" stroke-width="1" fill="blue" tooltip="enable"><title>(2.59807,69)</title></rect><rect x="402" y="199.759" width="6" height="0.240646" stroke="black" stroke-width="1" fill="blue" tooltip="enable"><title>(2.63743,62)</title></rect><rect x="408" y="199.798" width="6" height="0.201832" stroke="black" stroke-width="1" fill="blue" tooltip="enable"><title>(2.6768,52)</title></rect><rect x="414" y="199.829" width="6" height="0.170781" stroke="black" stroke-width="1" fill="blue" tooltip="enable"><title>(2.71616,44)</title></rect><rect x="420" y="199.814" width="6" height="0.186306" stroke="black" stroke-width="1" fill="blue" tooltip="enable"><title>(2.75552,48)</title></rect><rect x="426" y="199.814" width="6" height="0.186306" stroke="black" stroke-width="1" fill="blue" tooltip="enable"><title>(2.79489,48)</title></rect><rect x="432" y="199.845" width="6" height="0.155255" stroke="black" stroke-width="1" fill="blue" tooltip="enable"><title>(2.83425,40)</title></rect><rect x="438" y="199.876" width="6" height="0.124204" stroke="black" stroke-width="1" fill="blue" tooltip="enable"><title>(2.87362,32)</title></rect><rect x="444" y="199.794" width="6" height="0.205713" stroke="black" stroke-width="1" fill="blue" tooltip="enable"><title>(2.91298,53)</title></rect><rect x="450" y="199.829" width="6" height="0.170781" stroke="black" stroke-width="1" fill="blue" tooltip="enable"><title>(2.95235,44)</title></rect><rect x="456" y="199.903" width="6" height="0.0970346" stroke="black" stroke-width="1" fill="blue" tooltip="enable"><title>(2.99171,25)</title></rect><rect x="462" y="199.86" width="6" height="0.13973" stroke="black" stroke-width="1" fill="blue" tooltip="enable"><title>(3.03108,36)</title></rect><rect x="468" y="199.876" width="6" height="0.124204" stroke="black" stroke-width="1" fill="blue" tooltip="enable"><title>(3.07044,32)</title></rect><rect x="474" y="199.876" width="6" height="0.124204" stroke="black" stroke-width="1" fill="blue" tooltip="enable"><title>(3.10981,32)</title></rect><rect x="480" y="199.915" width="6" height="0.0853905" stroke="black" stroke-width="1" fill="blue" tooltip="enable"><title>(3.14917,22)</title></rect><rect x="486" y="199.899" width="6" height="0.100916" stroke="black" stroke-width="1" fill="blue" tooltip="enable"><title>(3.18854,26)</title></rect><rect x="492" y="199.911" width="6" height="0.0892719" stroke="black" stroke-width="1" fill="blue" tooltip="enable"><title>(3.2279,23)</title></rect><rect x="498" y="199.903" width="6" height="0.0970346" stroke="black" stroke-width="1" fill="blue" tooltip="enable"><title>(3.26727,25)</title></rect><rect x="504" y="199.899" width="6" height="0.100916" stroke="black" stroke-width="1" fill="blue" tooltip="enable"><title>(3.30663,26)</title></rect><rect x="510" y="199.942" width="6" height="0.0582208" stroke="black" stroke-width="1" fill="blue" tooltip="enable"><title>(3.34599,15)</title></rect><rect x="516" y="199.95" width="6" height="0.050458" stroke="black" stroke-width="1" fill="blue" tooltip="enable"><title>(3.38536,13)</title></rect><rect x="522" y="199.938" width="6" height="0.0621022" stroke="black" stroke-width="1" fill="blue" tooltip="enable"><title>(3.42472,16)</title></rect><rect x="528" y="199.911" width="6" height="0.0892719" stroke="black" stroke-width="1" fill="blue" tooltip="enable"><title>(3.46409,23)</title></rect><rect x="534" y="199.926" width="6" height="0.0737463" stroke="black" stroke-width="1" fill="blue" tooltip="enable"><title>(3.50345,19)</title></rect><rect x="540" y="199.946" width="6" height="0.0543394" stroke="black" stroke-width="1" fill="blue" tooltip="enable"><title>(3.54282,14)</title></rect><rect x="546" y="199.942" width="6" height="0.0582208" stroke="black" stroke-width="1" fill="blue" tooltip="enable"><title>(3.58218,15)</title></rect><rect x="552" y="199.942" width="6" height="0.0582208" stroke="black" stroke-width="1" fill="blue" tooltip="enable"><title>(3.62155,15)</title></rect><rect x="558" y="199.977" width="6" height="0.0232883" stroke="black" stroke-width="1" fill="blue" tooltip="enable"><title>(3.66091,6)</title></rect><rect x="564" y="199.953" width="6" height="0.0465766" stroke="black" stroke-width="1" fill="blue" tooltip="enable"><title>(3.70028,12)</title></rect><rect x="570" y="199.973" width="6" height="0.0271697" stroke="black" stroke-width="1" fill="blue" tooltip="enable"><title>(3.73964,7)</title></rect><rect x="576" y="199.95" width="6" height="0.050458" stroke="black" stroke-width="1" fill="blue" tooltip="enable"><title>(3.77901,13)</title></rect><rect x="582" y="199.988" width="6" height="0.0116442" stroke="black" stroke-width="1" fill="blue" tooltip="enable"><title>(3.81837,3)</title></rect><rect x="588" y="199.988" width="6" height="0.0116442" stroke="black" stroke-width="1" fill="blue" tooltip="enable"><title>(3.85774,3)</title></rect><rect x="594" y="199.988" width="6" height="0.0116442" stroke="black" stroke-width="1" fill="blue" tooltip="enable"><title>(3.8971,3)</title></rect><text x="30" y="240" font-size="20" fill="black">0</text>
<text x="600" y="240" font-size="20" fill="black">3.93646</text>
<polyline points="0,220,600,220" stroke="black" stroke-width="1" fill="none"/>
<text x="720" y="20" font-size="20" fill="black">51528</text>
<text x="720" y="200" font-size="20" fill="black">0</text>
<polyline points="660,0,660,200" stroke="black" stroke-width="1" fill="none"/>
</svg>